<?xml version="1.0" encoding="UTF-8" standalone="no"?>
<!DOCTYPE svg PUBLIC "-//W3C//DTD SVG 1.1//EN" "http://www.w3.org/Graphics/SVG/1.1/DTD/svg11.dtd">
<svg width="100%" height="100%" viewBox="0 0 453 880" version="1.1" xmlns="http://www.w3.org/2000/svg" xmlns:xlink="http://www.w3.org/1999/xlink" xml:space="preserve" xmlns:serif="http://www.serif.com/" style="fill-rule:evenodd;clip-rule:evenodd;stroke-linejoin:round;stroke-miterlimit:2;">
    <g transform="matrix(1,0,0,1,-129.168,-13.2192)">
        <g transform="matrix(4.16667,0,0,4.16667,0,0)">
            <g transform="matrix(1,0,0,1,85.0801,99.4846)">
                <path d="M0,18.48C-7.757,18.48 -12.768,29.528 -12.768,46.634C-12.768,50.053 -12.708,53.68 -12.6,57.386L-16.553,57.386C-16.503,54.668 -16.395,41.209 -19.181,32.552C-20.477,28.288 -22.987,24.493 -26.405,21.632C-28.539,6.439 -29.569,-8.889 -29.488,-24.231C-29.488,-65.469 0.504,-79.877 0.504,-79.877C0.504,-79.877 30.447,-65.509 30.447,-24.27C30.53,-9.065 29.52,6.127 27.423,21.188C23.728,24.09 21.019,28.062 19.666,32.562C16.879,41.219 16.988,54.688 17.037,57.396L12.659,57.396C12.768,53.71 12.827,50.093 12.827,46.644C12.827,29.528 7.787,18.48 0,18.48M-2.392,107.874C-3.271,98.258 -5.85,68.434 -5.85,46.605C-5.85,30.457 -1.294,25.368 0,25.368C1.295,25.368 5.929,30.457 5.929,46.605C5.929,69.007 3.36,98.337 2.471,107.874L-2.392,107.874ZM-38.086,107.676L-46.979,107.676C-47.276,98.782 -47.701,73.662 -43.699,54.501C-41.559,44.457 -37.125,35.044 -30.743,26.999C-28.395,29.032 -26.68,31.697 -25.802,34.677C-23.608,41.485 -23.47,52.465 -23.5,56.289C-25.743,58.651 -30.645,64.709 -34.113,75.362C-37.582,86.015 -38.066,100.927 -38.086,107.676M47.385,107.676L38.491,107.676C38.491,100.927 37.997,86.054 34.538,75.362C31.08,64.669 26.188,58.651 23.994,56.289C23.994,52.465 24.103,41.466 26.296,34.667C27.18,31.692 28.895,29.032 31.238,26.998C37.619,35.043 42.05,44.457 44.183,54.501C48.106,73.662 47.711,98.802 47.385,107.676M50.883,53.087C48.382,40.921 42.748,29.619 34.538,20.298C36.493,5.523 37.438,-9.367 37.365,-24.27C37.365,-47.691 28.322,-63.176 20.733,-72.041C16.021,-77.636 10.328,-82.324 3.933,-85.875L3.933,-92.853C3.933,-94.763 2.385,-96.312 0.475,-96.312C-1.436,-96.312 -2.984,-94.763 -2.984,-92.853L-2.984,-85.875C-9.379,-82.324 -15.072,-77.636 -19.784,-72.041C-27.383,-63.147 -36.436,-47.671 -36.436,-24.26C-36.506,-9.52 -35.582,5.208 -33.668,19.824L-33.876,20.022C-42.241,29.367 -47.97,40.769 -50.478,53.058C-55.547,77.506 -53.808,109.959 -53.729,111.333L-53.542,114.594L-31.03,114.594L-31.139,111.036C-31.139,110.829 -31.692,90.284 -27.532,77.506C-26.06,72.806 -23.888,68.355 -21.088,64.303L-12.343,64.303C-11.354,87.428 -9.012,111.372 -8.973,111.668L-8.667,114.792L8.716,114.792L9.032,111.679C9.032,111.382 11.444,87.724 12.412,64.303L21.543,64.303C24.328,68.358 26.487,72.809 27.947,77.506C32.107,90.284 31.564,110.829 31.554,111.036L31.455,114.594L53.947,114.594L54.135,111.333C54.233,109.959 55.982,77.506 50.883,53.087" style="fill:rgb(1,2,3);fill-rule:nonzero;"/>
            </g>
        </g>
        <g transform="matrix(4.16667,0,0,4.16667,0,0)">
            <g transform="matrix(1,0,0,1,85.0112,46.842)">
                <path d="M0,22.542C-9.013,22.542 -16.632,17.374 -16.632,11.256C-16.632,5.139 -9.013,-0.019 0,-0.019C9.012,-0.019 16.631,5.159 16.631,11.276C16.631,17.393 9.012,22.542 0,22.542M23.549,11.276C23.549,1.246 12.985,-6.917 0,-6.917C-12.985,-6.917 -23.549,1.246 -23.549,11.276C-23.549,21.307 -12.985,29.459 0,29.459C12.985,29.459 23.549,21.307 23.549,11.276" style="fill:rgb(1,2,3);fill-rule:nonzero;"/>
            </g>
        </g>
    </g>
</svg>
