<?xml version="1.0" encoding="UTF-8" standalone="no"?>
<!DOCTYPE svg PUBLIC "-//W3C//DTD SVG 1.1//EN" "http://www.w3.org/Graphics/SVG/1.1/DTD/svg11.dtd">
<svg width="100%" height="100%" viewBox="0 0 3508 4725" version="1.1" xmlns="http://www.w3.org/2000/svg" xmlns:xlink="http://www.w3.org/1999/xlink" xml:space="preserve" xmlns:serif="http://www.serif.com/" style="fill-rule:evenodd;clip-rule:evenodd;stroke-linejoin:round;stroke-miterlimit:2;">
    <g id="Layer-1" serif:id="Layer 1" transform="matrix(4.16667,0,0,4.16667,0,0)">
        <g transform="matrix(1,0,0,1,387.572,45.7192)">
            <path d="M0,329.679L-3.179,332.858L-43.594,329.225L-142.135,329.225L-161.207,330.134L-163.932,310.607L-167.564,266.104L-167.564,227.96L-169.38,218.878L-167.11,195.265L-169.835,187.091L-169.835,143.496L-165.294,128.057L-165.294,83.555L-170.743,77.197L-167.564,74.473L-167.564,-1.817L-18.164,-1.817L-9.99,-3.179L-1.816,4.54L-4.541,14.986L-4.541,138.956L-16.348,137.139L-24.521,133.053L-28.608,133.506L-30.879,129.874L-39.053,132.144L-44.048,132.144L-53.584,129.419L-53.584,71.748L-51.767,64.028L-51.767,43.594L-122.608,43.594L-122.608,67.661L-116.25,133.96L-118.975,140.318L-118.975,241.584L-121.245,243.853L-117.613,247.487L-120.338,255.206L-120.338,262.926L-117.613,264.288L-118.975,282.453L-103.989,284.723L-45.864,284.723L-45.864,205.709L0,193.903L0,329.679Z" style="fill:rgb(1,2,3);fill-rule:nonzero;"/>
        </g>
        <g transform="matrix(1,0,0,1,558.308,38.9082)">
            <path d="M0,345.572L4.995,338.761L7.265,328.771L-1.817,197.989L-56.309,197.989L-61.758,202.076L-55.855,348.752L-64.029,345.572L-112.617,345.572L-125.332,118.52L-125.332,0.907L-68.569,0.907L-59.942,138.047L2.725,138.047L6.812,132.144L6.812,120.791L1.817,90.82L1.817,16.347L0,-0.909L18.618,0L55.4,-3.18L58.125,3.178L57.216,14.531L62.213,66.753L67.662,185.274L67.662,275.64L65.39,331.041L68.569,338.306L69.478,345.572L0,345.572Z" style="fill:rgb(1,2,3);fill-rule:nonzero;"/>
        </g>
        <g transform="matrix(1,0,0,1,305.834,667.636)">
            <path d="M0,-163.932L-5.45,-163.932L-17.256,-56.308L-13.169,-56.308L-13.169,-53.585L-20.435,-37.691L-24.522,-23.16L-14.985,-24.976L21.343,-27.246L0,-163.932ZM89.004,83.101L87.188,84.917L77.197,84.917L53.13,81.285L47.226,82.193L37.69,72.203L38.599,54.947L34.966,52.677L34.966,49.043L37.237,46.773L29.062,33.603L31.333,26.792L16.802,30.425L5.449,29.517L-28.154,30.879L-32.695,24.975L-37.691,38.145L-44.957,67.661L-46.772,83.555L-91.729,79.468L-74.473,-63.574L-54.493,-169.381L-49.951,-183.458L-49.951,-202.531L-46.772,-206.164L-46.772,-219.333L-42.232,-227.961L-39.507,-248.849L23.613,-246.124L25.43,-228.869L29.062,-217.062L33.604,-207.98L35.875,-206.164L35.875,-187.545L41.323,-178.464L40.416,-168.473L43.594,-168.927L53.13,-122.155L57.217,-116.705L63.12,-81.739L69.024,-59.942L67.662,-56.308L76.744,-22.251L79.468,-5.904L80.376,9.99L84.917,18.618L84.917,20.889L82.647,24.522L84.463,29.517L87.188,58.579L89.004,83.101Z" style="fill:rgb(1,2,3);fill-rule:nonzero;"/>
        </g>
        <g transform="matrix(1,0,0,1,562.396,461.02)">
            <path d="M0,240.219L0,93.09L-4.542,9.08L-7.72,3.632L-77.198,3.632L-72.202,80.375L-74.927,84.462L-72.202,90.82L-75.836,94.906L-72.202,96.268L-72.202,240.219L0,240.219ZM52.676,286.539L-121.699,286.539L-121.699,75.38L-127.148,45.409L-127.148,8.173L-124.878,2.723L-124.878,-46.32L-74.927,-44.049L46.318,-44.049L46.318,168.925L52.676,286.539Z" style="fill:rgb(1,2,3);fill-rule:nonzero;"/>
        </g>
        <g transform="matrix(1,0,0,1,403.466,846.803)">
            <path d="M0,209.342L-6.357,239.312L-6.357,250.211L-2.725,256.113L-4.541,271.554L-38.598,269.738L-43.139,270.645L-174.375,270.645L-177.554,261.11L-180.733,232.5L-180.733,135.322L-178.917,132.598L-159.844,131.691L-130.327,131.691L-130.327,153.031L-127.148,157.573L-129.873,159.844L-129.873,201.167L-131.235,204.8L-128.965,224.326L-49.497,224.326L-54.492,143.497L-182.095,82.647L-182.095,-59.487L-110.347,-59.487L-108.076,-61.304L-100.357,-60.396L-98.541,-58.579L-84.009,-61.304L-81.738,-58.579L-67.661,-62.212L-60.395,-61.759L-59.033,-59.487L-24.521,-62.212L-22.25,-59.487L-11.806,-56.309L-9.99,-36.329L-12.715,-34.966L-7.266,-27.247L-7.266,-14.532L-9.082,-11.353L-5.903,-5.451L-5.903,72.655L-51.767,68.569L-55.854,54.037L-55.854,-6.813L-64.028,-7.72L-85.372,-6.358L-135.323,-6.358L-135.323,11.353L-132.598,15.893L-134.414,20.887L-134.414,31.786L-132.598,33.604L-133.96,37.691L-133.96,47.227L-128.057,51.767L-23.159,106.26L-23.159,109.893L-2.725,118.974L-2.725,122.154L-4.995,123.516L-2.27,188.453L-4.995,201.622L-1.816,203.438L-1.362,208.434L0,209.342Z" style="fill:rgb(1,2,3);fill-rule:nonzero;"/>
        </g>
    </g>
</svg>
